# xmcd
#
# Track frame offsets:
#	150
#	13970
#	27092
#	44390
#	59397
#	76100
#	97582
#	117150
#	134655
#	154422
#	170345
#
# Disc length: 2517 seconds
# Revision: 0
# Processed by: cddbd v1.5.2PL0 Copyright (c) Steve Scherf et al.
# Submitted via: dBpowerAMP V12.0
#
DISCID=8509d30b
DTITLE=Shane Minor - Shane Minor
DYEAR=1999
DGENRE=Country
TTITLE0=Slave to the Habit
TTITLE1=Ordinary Love
TTITLE2=I Think You're Beautiful
TTITLE3=I Will Be True
TTITLE4=A Girl Like That
TTITLE5=Change Your Mind
TTITLE6=Easy to Believe
TTITLE7=Tell Me Now
TTITLE8=How Many Times
TTITLE9=Too Much
TTITLE10=Sliver of the Moon
EXTD=
EXTT0=
EXTT1=
EXTT2=
EXTT3=
EXTT4=
EXTT5=
EXTT6=
EXTT7=
EXTT8=
EXTT9=
EXTT10=
PLAYORDER=
